<?xml version="1.0" standalone="no"?>
<!DOCTYPE svg PUBLIC "-//W3C//DTD SVG 20010904//EN"
 "http://www.w3.org/TR/2001/REC-SVG-20010904/DTD/svg10.dtd">
<svg version="1.0" xmlns="http://www.w3.org/2000/svg"
 width="38.000000pt" height="30.000000pt" viewBox="0 0 38.000000 30.000000"
 preserveAspectRatio="xMidYMid meet">

<g transform="translate(0.000000,30.000000) scale(0.100000,-0.100000)"
fill="#000000" stroke="none">
<path d="M200 275 l-24 -25 29 -30 29 -30 -117 0 -117 0 0 -40 0 -40 117 0
117 0 -29 -30 -29 -30 27 -28 27 -27 77 78 78 77 -75 75 c-41 41 -77 75 -81
75 -3 0 -16 -11 -29 -25z m100 -60 l65 -65 -68 -67 c-63 -64 -68 -67 -84 -50
-16 16 -16 18 10 45 15 15 27 31 27 35 0 4 -54 7 -120 7 l-120 0 0 30 0 30
120 0 c66 0 120 3 120 7 0 4 -12 19 -27 35 -22 23 -24 30 -13 43 7 8 15 15 19
15 4 0 36 -29 71 -65z"/>
<path d="M250 235 c13 -14 26 -25 28 -25 3 0 -5 11 -18 25 -13 14 -26 25 -28
25 -3 0 5 -11 18 -25z"/>
<path d="M270 85 c-24 -25 -42 -45 -39 -45 3 0 25 20 49 45 24 25 42 45 39 45
-3 0 -25 -20 -49 -45z"/>
</g>
</svg>
