<?xml version="1.0" standalone="no"?>
<!DOCTYPE svg PUBLIC "-//W3C//DTD SVG 20010904//EN"
 "http://www.w3.org/TR/2001/REC-SVG-20010904/DTD/svg10.dtd">
<svg version="1.0" xmlns="http://www.w3.org/2000/svg"
 width="225.000000pt" height="183.000000pt" viewBox="0 0 225.000000 183.000000"
 preserveAspectRatio="xMidYMid meet">

<g transform="translate(0.000000,183.000000) scale(0.100000,-0.100000)"
fill="#000000" stroke="none">
<path d="M23 1800 c-35 -43 -32 -112 7 -157 l30 -34 0 -484 0 -484 -30 -34
-30 -35 0 -154 c0 -153 0 -155 26 -179 23 -21 37 -25 132 -29 l105 -5 28 -54
c34 -65 61 -95 105 -116 19 -9 34 -20 34 -25 0 -6 38 -10 85 -10 47 0 85 4 85
10 0 5 15 16 34 25 44 21 71 51 105 116 l28 54 381 3 381 2 22 -50 c19 -44 39
-66 132 -145 24 -21 170 -21 195 0 91 78 112 101 131 144 l21 49 70 4 c63 3
73 7 103 36 l32 32 0 145 0 144 -33 33 c-30 32 -32 38 -32 108 -1 88 -13 127
-65 207 -21 32 -48 74 -60 93 -194 303 -207 317 -307 327 l-55 6 -9 46 c-7 37
-13 47 -31 49 -25 4 -43 -28 -43 -74 0 -23 -3 -24 -65 -24 -79 0 -78 -1 -73
164 3 114 3 115 36 148 42 44 43 90 5 141 l-28 36 -715 0 -715 0 -22 -29z
m1430 -61 c6 -9 7 -24 4 -33 -6 -15 -67 -16 -696 -16 -686 0 -690 0 -696 20
-16 52 -34 50 698 48 613 -3 681 -5 690 -19z m-68 -614 l0 -490 -625 0 -625 0
-3 480 c-1 264 0 486 3 493 3 10 134 12 627 10 l623 -3 0 -490z m415 120 c20
-18 49 -60 165 -240 18 -27 54 -84 81 -125 45 -69 49 -81 52 -148 3 -48 0 -77
-8 -87 -11 -13 -59 -15 -309 -15 -218 0 -300 3 -309 12 -18 18 -17 599 1 617
9 9 50 11 158 9 130 -3 149 -5 169 -23z m360 -704 c5 -11 10 -67 10 -125 0
-125 -7 -136 -81 -136 -46 0 -51 3 -67 31 -73 135 -132 178 -242 179 -54 0
-74 -5 -118 -31 -51 -29 -102 -91 -118 -143 -4 -12 -12 -24 -18 -28 -6 -4
-179 -8 -383 -8 l-373 0 -26 53 c-52 104 -130 157 -231 157 -97 0 -173 -52
-224 -152 l-29 -58 -88 0 c-55 0 -92 4 -100 12 -17 17 -15 53 3 68 20 17 20
113 0 130 -15 13 -20 51 -8 63 3 4 473 7 1044 7 1016 0 1039 0 1049 -19z
m-1549 -153 c108 -84 104 -217 -8 -289 -63 -39 -113 -39 -176 0 -114 73 -116
211 -4 292 32 23 50 29 93 29 44 0 59 -5 95 -32z m1249 12 c46 -24 86 -79 95
-133 11 -59 -31 -136 -94 -170 -56 -31 -98 -34 -144 -11 -74 38 -107 88 -107
163 0 129 135 210 250 151z"/>
<path d="M700 1544 c-96 -19 -155 -49 -229 -118 -194 -183 -168 -493 55 -647
131 -90 317 -95 452 -12 15 9 47 35 71 57 228 214 148 588 -150 699 -47 18
-155 29 -199 21z m182 -90 c101 -40 166 -106 208 -213 62 -159 -20 -352 -185
-431 -53 -25 -75 -30 -139 -30 -107 0 -175 27 -247 99 -81 81 -103 134 -103
246 -1 79 3 97 27 147 29 59 119 151 166 170 99 41 188 44 273 12z"/>
<path d="M737 1393 c-4 -3 -7 -60 -7 -126 l0 -120 -91 -92 c-95 -97 -108 -127
-59 -133 21 -2 44 16 123 96 l97 99 0 119 c0 143 -5 164 -34 164 -13 0 -26 -3
-29 -7z"/>
<path d="M1563 1176 l-28 -24 0 -131 c0 -180 -5 -176 194 -176 132 0 151 2
170 19 32 29 27 77 -15 144 -122 191 -123 192 -226 192 -56 0 -71 -4 -95 -24z
m175 -72 c57 -80 109 -171 102 -179 -13 -16 -220 -11 -231 6 -14 22 -11 173 4
188 18 19 108 8 125 -15z"/>
<path d="M1570 771 c-31 -9 -38 -40 -14 -58 21 -16 68 -17 95 -3 19 11 26 45
12 53 -18 10 -70 15 -93 8z"/>
<path d="M204 476 c-3 -7 -4 -35 -2 -62 3 -43 6 -49 27 -52 13 -2 28 2 32 10
13 20 11 92 -3 106 -16 16 -47 15 -54 -2z"/>
<path d="M766 475 c-9 -24 -7 -88 3 -103 4 -8 19 -12 32 -10 22 3 24 7 24 63
0 57 -1 60 -26 63 -17 2 -29 -3 -33 -13z"/>
<path d="M944 476 c-3 -7 -4 -35 -2 -62 3 -43 6 -49 27 -52 13 -2 28 2 32 10
12 18 11 75 -1 99 -12 22 -48 26 -56 5z"/>
<path d="M1122 478 c-14 -14 -16 -86 -3 -106 4 -8 19 -12 32 -10 22 3 24 7 24
63 0 52 -3 60 -20 63 -11 1 -26 -3 -33 -10z"/>
<path d="M1294 476 c-3 -7 -4 -35 -2 -62 3 -43 6 -49 27 -52 13 -2 28 2 32 10
13 20 11 92 -3 106 -16 16 -47 15 -54 -2z"/>
<path d="M1471 471 c-12 -22 -14 -55 -5 -88 5 -17 14 -23 36 -23 l29 0 -3 63
c-3 55 -5 62 -25 65 -14 2 -26 -4 -32 -17z"/>
<path d="M2034 476 c-3 -7 -4 -35 -2 -62 3 -43 6 -49 27 -52 13 -2 28 2 32 10
12 18 11 75 -1 99 -12 22 -48 26 -56 5z"/>
<path d="M476 299 c-50 -40 -25 -119 39 -119 64 0 89 79 39 119 -15 12 -32 21
-39 21 -7 0 -24 -9 -39 -21z"/>
<path d="M1735 295 c-14 -13 -25 -35 -25 -48 0 -30 39 -67 71 -67 31 0 69 38
69 69 0 28 -42 71 -70 71 -11 0 -32 -11 -45 -25z"/>
</g>
</svg>
