<?xml version="1.0" standalone="no"?>
<!DOCTYPE svg PUBLIC "-//W3C//DTD SVG 20010904//EN"
 "http://www.w3.org/TR/2001/REC-SVG-20010904/DTD/svg10.dtd">
<svg version="1.0" xmlns="http://www.w3.org/2000/svg"
 width="180.000000pt" height="172.000000pt" viewBox="0 0 180.000000 172.000000"
 preserveAspectRatio="xMidYMid meet">

<g transform="translate(0.000000,172.000000) scale(0.100000,-0.100000)"
fill="#000000" stroke="none">
<path d="M617 1707 c-3 -7 -24 -19 -46 -26 -66 -19 -142 -102 -169 -184 -26
-79 -28 -173 -7 -264 13 -54 13 -66 0 -97 -21 -50 -19 -87 10 -137 14 -24 37
-69 51 -99 14 -30 36 -76 50 -102 17 -33 24 -64 24 -102 0 -76 -29 -108 -150
-164 -52 -24 -122 -56 -156 -72 -76 -35 -169 -119 -184 -165 -6 -19 -18 -35
-26 -35 -11 0 -14 -17 -14 -75 l0 -75 519 0 c459 0 521 2 535 16 21 20 20 50
0 58 -9 3 -229 6 -490 6 l-474 0 0 23 c0 28 27 73 69 113 30 30 70 51 271 148
41 20 87 44 101 53 25 16 30 15 95 -5 126 -40 248 -22 322 47 39 35 41 39 32
72 -16 55 -12 103 13 150 13 24 32 67 42 94 10 28 29 63 42 78 38 46 48 98 33
162 -11 44 -11 63 -1 97 7 23 13 87 13 142 0 81 -4 110 -21 147 -22 50 -84
112 -122 124 -32 10 -119 66 -119 77 0 4 -54 8 -119 8 -89 0 -120 -3 -124 -13z
m253 -102 c29 -19 57 -35 64 -35 27 0 75 -42 95 -82 28 -58 28 -156 0 -266
-20 -76 -20 -84 -5 -101 26 -29 20 -78 -13 -109 -19 -17 -32 -42 -37 -67 -7
-44 -27 -87 -55 -124 -15 -19 -19 -41 -19 -107 0 -101 -11 -116 -94 -135 -45
-10 -67 -10 -112 0 -84 19 -94 34 -94 140 0 68 -4 92 -16 102 -22 18 -50 77
-58 124 -5 25 -18 50 -37 67 -33 31 -38 74 -14 112 14 22 14 30 0 91 -22 95
-20 221 4 276 43 96 137 148 267 149 66 0 76 -3 124 -35z"/>
<path d="M1335 726 c-14 -30 -25 -61 -26 -68 0 -7 -12 -38 -27 -68 l-27 -55
-120 -8 c-131 -9 -148 -14 -153 -44 -2 -16 19 -39 85 -93 101 -83 117 -105
104 -147 -60 -195 -62 -243 -10 -243 16 0 29 4 29 9 0 15 191 133 206 127 29
-11 184 -118 184 -127 0 -5 13 -9 29 -9 47 0 52 38 21 137 -10 34 -22 84 -26
111 l-6 50 88 71 c49 39 94 71 101 71 8 0 13 14 13 35 0 19 -1 35 -2 36 -2 0
-63 4 -136 9 -91 5 -138 12 -147 21 -7 8 -25 46 -39 84 -51 133 -63 155 -91
155 -21 0 -30 -9 -50 -54z m86 -172 c7 -25 23 -59 36 -75 23 -27 30 -29 94
-29 55 0 71 -3 76 -16 4 -12 -3 -24 -23 -38 -16 -11 -44 -35 -63 -52 l-34 -31
16 -60 c32 -113 20 -126 -63 -68 -27 19 -62 35 -76 35 -15 0 -49 -16 -76 -36
-49 -34 -78 -39 -78 -11 0 7 7 37 16 66 8 30 13 64 10 77 -4 13 -31 42 -62 65
-30 22 -53 46 -51 52 2 7 31 13 73 15 58 3 73 7 96 29 15 14 30 40 34 57 10
47 23 66 44 66 15 0 22 -11 31 -46z"/>
</g>
</svg>
