<?xml version="1.0" standalone="no"?>
<!DOCTYPE svg PUBLIC "-//W3C//DTD SVG 20010904//EN"
 "http://www.w3.org/TR/2001/REC-SVG-20010904/DTD/svg10.dtd">
<svg version="1.0" xmlns="http://www.w3.org/2000/svg"
 width="174.000000pt" height="174.000000pt" viewBox="0 0 174.000000 174.000000"
 preserveAspectRatio="xMidYMid meet">

<g transform="translate(0.000000,174.000000) scale(0.100000,-0.100000)"
fill="#000000" stroke="none">
<path d="M656 1719 c-164 -46 -282 -115 -401 -234 -122 -122 -189 -239 -234
-408 -29 -108 -29 -306 0 -414 89 -333 322 -559 666 -649 71 -19 295 -19 366
0 266 69 466 220 584 442 79 149 103 246 103 414 0 159 -24 260 -92 395 -113
224 -317 386 -571 454 -104 28 -319 28 -421 0z m374 -44 c272 -57 500 -249
603 -505 212 -533 -188 -1119 -763 -1120 -386 0 -724 277 -805 660 -43 206 9
452 134 634 47 68 166 179 238 222 83 50 182 90 265 108 85 19 241 19 328 1z"/>
<path d="M850 1585 c0 -18 5 -25 20 -25 15 0 20 7 20 25 0 18 -5 25 -20 25
-15 0 -20 -7 -20 -25z"/>
<path d="M710 1570 c0 -13 7 -20 20 -20 13 0 20 7 20 20 0 13 -7 20 -20 20
-13 0 -20 -7 -20 -20z"/>
<path d="M990 1570 c0 -13 7 -20 20 -20 13 0 20 7 20 20 0 13 -7 20 -20 20
-13 0 -20 -7 -20 -20z"/>
<path d="M579 1544 c-9 -11 -9 -18 -1 -26 14 -14 42 -3 42 16 0 20 -27 27 -41
10z"/>
<path d="M1131 1551 c-17 -11 -7 -41 13 -41 22 0 30 20 15 36 -9 8 -19 10 -28
5z"/>
<path d="M454 1475 c-7 -18 3 -35 21 -35 18 0 26 25 12 39 -15 15 -27 14 -33
-4z"/>
<path d="M1252 1477 c-15 -17 1 -42 23 -33 18 6 17 37 -1 43 -6 2 -16 -2 -22
-10z"/>
<path d="M747 1423 c-4 -3 -7 -45 -7 -92 -1 -86 -1 -87 -63 -206 l-62 -120
-70 -5 c-62 -4 -70 -7 -70 -25 0 -18 8 -20 87 -23 l87 -3 71 140 c67 135 70
144 70 212 0 67 1 70 22 67 12 -2 33 -18 45 -37 39 -58 44 -95 27 -204 -9 -54
-13 -105 -10 -113 4 -11 40 -14 195 -14 104 0 196 -3 205 -6 9 -3 16 -17 16
-31 0 -18 -9 -28 -35 -39 -42 -17 -43 -27 -10 -65 29 -35 24 -54 -16 -68 -35
-12 -37 -36 -8 -67 26 -27 20 -47 -17 -66 -36 -17 -40 -32 -14 -56 13 -12 20
-29 18 -44 l-3 -23 -261 -3 -261 -2 -17 25 c-16 25 -20 26 -104 23 -79 -3 -87
-5 -87 -23 0 -18 8 -21 70 -25 55 -4 78 -11 110 -33 l39 -28 257 3 c254 3 258
3 282 26 30 28 40 62 28 94 -6 17 -3 30 11 51 16 22 19 38 15 69 -4 32 -1 47
15 69 17 22 19 36 14 69 -5 33 -2 46 14 67 24 31 25 45 4 84 -25 50 -63 59
-245 59 l-161 0 6 33 c20 94 19 163 -3 213 -27 59 -56 92 -98 110 -35 15 -75
18 -86 7z"/>
<path d="M344 1385 c-4 -9 -2 -21 4 -27 15 -15 44 -1 40 19 -4 23 -36 29 -44
8z"/>
<path d="M1354 1385 c-4 -9 -2 -21 4 -27 15 -15 44 -1 40 19 -4 23 -36 29 -44
8z"/>
<path d="M254 1275 c-4 -9 -2 -21 3 -26 14 -14 45 1 41 20 -4 22 -37 26 -44 6z"/>
<path d="M1443 1274 c-8 -22 18 -37 36 -20 7 8 10 19 7 25 -10 16 -36 13 -43
-5z"/>
<path d="M192 1157 c-15 -17 1 -42 23 -33 18 6 17 37 -1 43 -6 2 -16 -2 -22
-10z"/>
<path d="M1514 1155 c-7 -18 3 -35 21 -35 18 0 26 25 12 39 -15 15 -27 14 -33
-4z"/>
<path d="M150 1010 c0 -13 7 -20 20 -20 13 0 20 7 20 20 0 13 -7 20 -20 20
-13 0 -20 -7 -20 -20z"/>
<path d="M1550 1010 c0 -13 7 -20 20 -20 13 0 20 7 20 20 0 13 -7 20 -20 20
-13 0 -20 -7 -20 -20z"/>
<path d="M130 870 c0 -15 7 -20 25 -20 18 0 25 5 25 20 0 15 -7 20 -25 20 -18
0 -25 -5 -25 -20z"/>
<path d="M1560 870 c0 -15 7 -20 25 -20 18 0 25 5 25 20 0 15 -7 20 -25 20
-18 0 -25 -5 -25 -20z"/>
<path d="M150 730 c0 -13 7 -20 20 -20 13 0 20 7 20 20 0 13 -7 20 -20 20 -13
0 -20 -7 -20 -20z"/>
<path d="M1550 730 c0 -13 7 -20 20 -20 13 0 20 7 20 20 0 13 -7 20 -20 20
-13 0 -20 -7 -20 -20z"/>
<path d="M187 606 c-8 -20 20 -43 35 -28 14 14 3 42 -16 42 -7 0 -16 -6 -19
-14z"/>
<path d="M1513 604 c-3 -8 -1 -20 5 -26 15 -15 43 8 35 28 -7 19 -32 18 -40
-2z"/>
<path d="M260 490 c-18 -11 -4 -42 17 -38 10 2 19 10 21 19 4 19 -19 31 -38
19z"/>
<path d="M1451 491 c-17 -11 -7 -41 13 -41 22 0 30 20 15 36 -9 8 -19 10 -28
5z"/>
<path d="M344 375 c-4 -9 -2 -21 4 -27 15 -15 44 -1 40 19 -4 23 -36 29 -44 8z"/>
<path d="M1354 375 c-4 -9 -2 -21 4 -27 15 -15 44 -1 40 19 -4 23 -36 29 -44
8z"/>
<path d="M453 284 c-3 -8 -1 -20 5 -26 15 -15 43 8 35 28 -7 19 -32 18 -40 -2z"/>
<path d="M1247 286 c-8 -20 20 -43 35 -28 14 14 3 42 -16 42 -7 0 -16 -6 -19
-14z"/>
<path d="M574 219 c-3 -6 0 -17 7 -25 18 -17 44 -2 36 20 -7 18 -33 21 -43 5z"/>
<path d="M1123 214 c-8 -22 18 -37 36 -20 7 8 10 19 7 25 -10 16 -36 13 -43
-5z"/>
<path d="M710 170 c0 -13 7 -20 20 -20 13 0 20 7 20 20 0 13 -7 20 -20 20 -13
0 -20 -7 -20 -20z"/>
<path d="M990 170 c0 -13 7 -20 20 -20 13 0 20 7 20 20 0 13 -7 20 -20 20 -13
0 -20 -7 -20 -20z"/>
<path d="M850 155 c0 -18 5 -25 20 -25 15 0 20 7 20 25 0 18 -5 25 -20 25 -15
0 -20 -7 -20 -25z"/>
</g>
</svg>
