<?xml version="1.0" standalone="no"?>
<!DOCTYPE svg PUBLIC "-//W3C//DTD SVG 20010904//EN"
 "http://www.w3.org/TR/2001/REC-SVG-20010904/DTD/svg10.dtd">
<svg version="1.0" xmlns="http://www.w3.org/2000/svg"
 width="190.000000pt" height="190.000000pt" viewBox="0 0 190.000000 190.000000"
 preserveAspectRatio="xMidYMid meet">

<g transform="translate(0.000000,190.000000) scale(0.100000,-0.100000)"
fill="#000000" stroke="none">
<path d="M216 1885 c-8 -22 -198 -255 -207 -255 -5 0 -9 -306 -9 -680 l0 -680
473 2 472 3 0 25 0 25 -443 5 -443 5 1 610 c0 336 0 613 0 618 0 4 340 7 755
7 597 0 755 -3 755 -12 1 -7 2 -146 3 -308 l2 -295 25 0 25 0 3 326 2 327
-106 133 c-59 74 -109 140 -111 147 -4 9 -133 12 -598 12 -514 0 -594 -2 -599
-15z m584 -57 c15 -10 22 -10 32 0 9 9 82 12 279 12 l267 0 60 -78 c33 -43 67
-84 76 -91 9 -8 16 -20 16 -27 0 -19 -669 -21 -700 -2 -15 10 -22 10 -32 0
-19 -19 -698 -17 -698 2 0 7 7 19 16 27 9 7 43 48 76 91 l60 78 264 0 c191 0
270 -3 284 -12z"/>
<path d="M794 1745 c-4 -9 -2 -21 4 -27 15 -15 44 -1 40 19 -4 23 -36 29 -44
8z"/>
<path d="M603 1395 c-3 -9 -1 -21 4 -26 5 -5 93 -8 214 -7 196 3 204 4 204 23
0 19 -8 20 -208 23 -182 2 -208 0 -214 -13z"/>
<path d="M1361 854 c-80 -21 -144 -60 -205 -124 -148 -155 -166 -361 -46 -537
50 -74 157 -157 217 -168 18 -3 33 -10 33 -15 0 -13 195 -13 218 -1 9 6 43 22
75 37 77 36 165 123 200 199 16 33 32 68 38 77 15 28 11 202 -5 235 -73 147
-99 180 -186 238 -105 69 -224 90 -339 59z m228 -64 c152 -55 252 -194 253
-350 1 -138 -60 -250 -177 -324 -247 -157 -575 22 -575 314 0 175 102 312 275
369 53 17 166 13 224 -9z"/>
<path d="M1451 637 c-6 -8 -28 -22 -49 -31 -39 -18 -72 -60 -72 -91 0 -32 33
-72 76 -94 42 -20 44 -22 44 -66 0 -37 -3 -45 -18 -45 -11 0 -27 9 -37 20 -23
25 -65 27 -65 2 0 -28 26 -58 62 -72 18 -7 41 -20 51 -29 14 -12 22 -13 35 -3
9 6 36 20 59 31 48 22 63 45 63 98 -1 47 -13 64 -68 92 -40 20 -42 24 -42 66
0 50 8 55 35 25 21 -23 75 -27 75 -6 0 19 -54 76 -72 76 -8 0 -23 9 -33 20
-21 24 -29 25 -44 7z m-3 -111 c4 -36 -12 -54 -33 -36 -18 15 -20 41 -3 58 18
18 33 9 36 -22z m80 -148 c18 -18 14 -56 -7 -67 -25 -14 -31 -5 -31 41 0 39
15 49 38 26z"/>
<path d="M194 446 c-8 -21 3 -36 27 -36 15 0 20 6 17 22 -4 27 -35 37 -44 14z"/>
<path d="M304 445 c-4 -9 -2 -21 4 -27 15 -15 44 -1 40 19 -4 23 -36 29 -44 8z"/>
<path d="M414 445 c-4 -9 -2 -21 4 -27 15 -15 44 -1 40 19 -4 23 -36 29 -44 8z"/>
<path d="M524 445 c-4 -9 -2 -21 4 -27 15 -15 44 -1 40 19 -4 23 -36 29 -44 8z"/>
<path d="M637 454 c-4 -4 -7 -16 -7 -26 0 -14 6 -19 23 -16 14 2 22 10 22 23
0 20 -25 32 -38 19z"/>
<path d="M740 435 c0 -18 5 -25 19 -25 20 0 31 17 24 38 -3 6 -13 12 -24 12
-14 0 -19 -7 -19 -25z"/>
<path d="M846 445 c-8 -22 1 -35 25 -35 15 0 20 6 17 22 -4 27 -33 36 -42 13z"/>
</g>
</svg>
